<svg class="h-10 w-auto" viewBox="0 0 1467.461346446678363 500" xmlns="http://www.w3.org/2000/svg"><path fill="#f06833" d="M762.780108594319245,276.561565206488922c.000006299187589,19.275661900756859-4.558551346259264,33.924098319996119-13.671858239780704,43.945309256493601-9.119028935912866,10.028840331553511-21.356573978569941,15.041355658169778-36.718357171594107,15.041360678332239-10.417936404321154.000003404516065-19.470212150235966-2.212517663072504-27.149197845768867-6.641377901843043-7.682800390897683-4.425045540930114-13.671876194914148-10.997765819025517-17.967227414552326-19.725790227509606-4.297258566673918-8.724209711253934-6.446843650293886-19.592279611456433-6.446847907500342-32.619468487612721l-.000002680242687-8.201597681899329-44.530860716138704.000014552478206.000002808646968,8.594511431315368c.000006809064871,20.83587280861957,4.034054287538311,38.669578077697224,12.109771832389015,53.512559894539663,8.068088152884229,14.84679651593251,19.336705558242102,26.046742039950004,33.788686080122716,33.596021881038723,14.45388787270349,7.556909233700026,31.183241027139957,11.325824003691196,50.195688862777388,11.325817790523615,18.749233770471619-.000006127136658,35.350792125615044-3.768931789518319,49.80467505917477-11.325850470131627,14.453882936060836-7.54928928737354,25.714863585670173-18.878941858235521,33.788663994953822-33.98514301780051,8.069985715204893-15.098571765100132,12.109743451750546-33.332822815285908,12.109736473154044-54.687494360993696l-.000060380196373-184.764829638521405-45.312873518372726.000014808018022.000060762928115,185.9359414935725Z"></path><path fill="#f06833" d="M995.783652446090855,179.881818527186624c-15.497207857990361-8.983605419740343-33.008574051520554-13.477312287472159-52.539820624240747-13.477305904742025-19.53124657270746.000006382701031-36.981574683644794,4.493724675737212-52.343354940869176,13.477340180034844-15.369409650422313,8.98361550676691-27.410495412395903,21.358495199911886-36.132794032362654,37.109380296172276-8.728020662390918,15.758514491290953-13.08630567318869,33.660887041685783-13.086299120943295,53.710932351489646.000006554751963,20.057674702982695,4.297268142003304,38.02489426691136,12.889877414712828,53.905473389019789,8.594516623508753,15.888208514662438,20.637517840556029,28.320300786197549,36.132818351497917,37.307720903141671,15.49148581308873,8.983605421574794,33.008574050278185,13.473497590854095,52.539820622989282,13.473491208137602,19.531246572711098-.000006382718311,37.042609830450601-4.489909999107113,52.539811816837755-13.473525547626195,15.489572591959586-8.987430242652408,27.666080064384005-21.419530428992402,36.521893020364587-37.307744646332139,8.850090913565509-15.880584822296441,13.28276248678776-33.847807239113536,13.282755932046712-53.905481942094411-.000006466227205-19.786831244671703-4.432689741526701-37.628165776674905-13.282791036961498-53.516374207817535-8.855823337857146-15.880579036072959-21.032338938272005-28.320300657165717-36.521917403071711-37.303906079383523ZM994.416124821256744,305.663809841670627c-4.949565470222296,10.292053034140736-11.78549915399708,18.299103423570159-20.507801050109265,24.024965864937258-8.728023939769628,5.7296771398087-18.817895501812018,8.590702884308484-30.273429380311427,8.590706627916916-11.718747943641574.000003829614798-22.008892946931155-2.861015254798986-30.858990922630255-8.590686650156385-8.857727367627376-5.725856696305527-15.693666264794956-13.671867472290614-20.507816688997991-23.830402934821905-4.821779816153139-10.154720763446676-7.226949849689845-21.873467921077463-7.226954190433389-35.156241469155248-.000004168701707-12.756345417799821,2.405158269160893-24.280544621014997,7.226931404644347-34.568782916784585,4.814143743555178-10.284423596670422,11.650077427337237-18.291473986132587,20.507801050120179-24.024965864929072,8.850094232071569-5.725862483113815,19.004815633799808-8.594517641987295,30.467978905471682-8.594521388080466,11.194227161657182-.000003658226888,21.289822641039791,2.868644882961235,30.273434996341166,8.594501538111217,8.983612357797028,5.733486048334271,15.949250936746466,13.671867388760802,20.898823090115911,23.830402807021528,4.943850107227263,10.154720723560786,7.421499333739121,21.743768173237186,7.421503588457199,34.763327656173715.000004257237379,13.027188876126274-2.477637374851838,24.677273090712333-7.421480802668157,34.961696729767027Z"></path><path fill="#f06833" d="M1219.021604605912216,179.881745574170054c-14.587402719778765-8.98360571705598-31.902312038602759-13.477312648989937-51.952357348394798-13.477306096739994-20.574566091780071.000006723674232-38.282386136970672,4.756939165990843-53.1253674875461,14.259353237805044-14.842981348116155,9.510043465030321-26.042926405905746,22.205357397393527-33.594113128450772,38.085941795197868-7.555001416651066,15.888213792227361-11.327730691888064,33.203122875439476-11.327724564758682,51.952356645942928.000006127162123,18.749233770484352,3.967296248159982,36.071769717481402,11.91331444781099,51.952349050875455,7.942203505544967,15.888208727834353,19.464498745666788,28.652179773410353,34.570700414471503,38.284283742277694,15.100479625161825,9.635918667327132,32.941817178978454,14.450059941293148,53.516383270745791,14.450053217641653,16.143795995260007-.000005275711374,30.792230052173181-2.670297680107069,43.945302171941876-8.007062516586302,13.147350076142175-5.332950138009437,23.956290306039591-13.214116838153132,32.421098648568659-23.632056008712425,8.459086298835246-10.41412447211325,13.868322029513365-22.785187301402402,16.21054105852636-37.109373785677235l-41.795723256620477.000013658624994c-2.344127739903342,10.154723105213634-8.008949587327152,18.104552663012328-16.992558201516658,23.826600493139267-8.983608610451483,5.733491919941116-19.861215019638621,8.594517921868828-32.617560437438442,8.594522090583268-18.230435033410686.000005957609574-32.684322434846763-6.114947962697443-43.359754861077818-18.360120547927181-8.798600993730361-10.081286554364851-13.907437760632092-23.393622331512233-15.456209953526923-39.84068620004382l150.612804686619711-.000049219505854c.518796610331265-6.507872562709963.782008803049393-12.237546936271428.782007184925533-17.189023118174191.255579054668488-17.189022946149635-3.320704237634345-33.203118088425981-10.742201316206774-48.046100119054245-7.421497078566972-14.842982030639178-18.426900653159464-26.760090600771946-33.008581328072978-35.743696319666924ZM1113.077011733250401,247.264580872171791c1.083372132634395-5.204200185440641,2.487178868475894-10.135649668986844,4.382127927905458-14.648436361590939,4.425044604698996-10.547637534657042,10.869971867441564-18.615722941867716,19.336689131492676-24.219515008611779,8.459087873345197-5.596162671057755,18.554681500239894-8.396153271874937,30.27342944387965-8.396157101507924,9.893415622316752-.000003233124517,18.487927713098543,2.017968457634197,25.78162892401815,6.053915072909149,7.286071818973141,4.039761314366842,12.95089809318597,9.635919369797193,16.990664128512435,16.796103560741358,4.03595134121133,7.16781358539356,6.446842247853056,15.30074594070993,7.226950679949368,24.414055854172148l-103.991490235757738.000033983887988Z"></path><path fill="#f06833" d="M1424.101597585615309,169.532406689494564l-54.003656294093162,152.219763275892547-54.980318111991437-152.219727660495664-43.359748861088519.000014169758288,79.726272041662014,204.576430356944002c-3.460880505943351,9.121894366737251-7.121079600434314,16.128062698920075-10.975828915707098,21.009445090587178-4.430768267751773,5.596161354623291-9.510035445520771,9.696961855450354-15.233986836716213,12.302401501237-5.731580785644837,2.601624951685153-12.372967133331258,3.906253357965397-19.922251697280444,3.906255825024346-4.688262116778787.00000153210749-8.789061064922862-.328061035025712-12.304304190271068-.976558307644154-3.515243126628775-.652311969183756-6.835936790375854-1.499173528361098-9.962080990077084-2.536769980938516l.000011998752598,36.716454738731954c3.644942936776715,1.037596283026687,7.745742076906026,1.95312212601857,12.306212113269794,2.735133437913646,4.552840643164018.782011314366173,9.044646012369412,1.171108899277897,13.475416108909485,1.171107451326861,19.788738592960726-.000006466857485,35.480491255135348-5.466471817228921,47.071443287473812-16.407025443101702,11.583322640402912-10.936738926749968,21.154391377707725-26.30615464076709,28.709391520314966-46.092988354360386l82.813177687905409-216.40395027062732-43.359748861063053.000014169751921Z"></path><path fill="#f06833" d="M433.075949542162562,483.909506440373661c-22.707010328320393-88.248706799648971-122.743631527737307-142.288142927503941-208.689689088572777-110.382946184011416-22.542971217952072-66.349010531353088-69.620160492975629-123.207047913650058-130.201368433738025-157.772947648618356-2.670288116003576-1.525877765860969-5.4931638215985-2.212522230688592-8.277892336847799-2.212521320639098l-.074386608566783-.076293907612126c-8.789060964105374-.019547447857803-16.910547692988985,7.093433846956032-16.746512547697421,16.860010753856841.003839664610496,76.402650776391965,29.928249786400556,145.781481667115258,78.729680122796708,197.131096600931414-16.651143622177187,21.482469323194891-26.844004722981481,46.587944628131481-30.891389329246522,72.54409526571817l192.435230819415665-.00006288685654c-4.12273512252068-5.434987628191266-6.600382769218413-12.189860816280998-6.600385171012022-19.539350646005005-.000005844944098-17.8856818285185,14.49869750507969-32.3843946547413,32.383902496529117-32.384400499559888,17.885204991431237-.000005844788575,32.384871491820377,14.498697504940537,32.384877336764475,32.384379333464494.000002401771781,7.349489829693994-2.47764083000402,14.10436463716178-6.601326074422104,19.53935496025133l24.479861732168501-.000007999888112c17.50087430937856-.000005719189176,34.077637081165449-3.938685372011605,48.914897199665575-10.953917261229435-.402451049714728-1.70993761774389-.783921266720427-3.415583708674603-1.245500117236588-5.136488559802274Z"></path><path fill="#f06833" d="M385.406389062312883,0L114.59154095426311.000088500903075C51.303817074473045.00010918301632-.000020682116883,51.30493414573175,0,114.592658025532728l.000088500595666,270.813894433901623c.000016572612367,50.712576550300582,32.953287167669259,93.701335398431183,78.605673615655178,108.795121236609702,1.459118510398184-8.989333005853041,3.482812153795749-17.866132646607184,6.156911620650135-26.578423709212075.270843161784796-.907421041350972.54168632310575-1.816272593908252.825880924541707-2.718925268866769.524520251696231-1.622676736010362,1.094816866763722-3.232478886012359,1.661298784762039-4.84371154596829,3.406520813437965-9.935855235201416,7.484428312596719-19.612311321250672,12.428272052078682-28.943060811257965-44.933329867732027-57.10217866504172-69.347411020082291-127.288296523663121-69.347435003563078-200.67829066442664-.152597879074165-30.646795567191475,24.852730122045614-55.699823634555287,55.576296510904285-55.691250607531401l.228881795772395-.000000074793206c9.613035422524263-.000003141500201,19.111630782203065,2.555363636809489,27.503964852177887,7.323731639531616,22.575378639252449,12.799253376982961,43.569566540096275,28.660754963345425,62.484745533964087,46.78055761406722,3.164284694435992-18.764493590950224,8.186326643692155-37.490840823016697,15.329340005037011-55.897231071225178,4.615778992287233-11.900901214515216,20.48300869893319-14.304165255480257,28.532021758057454-4.386433572708484,36.436089140615877,44.681529324539952,58.706305842910297,99.680863897109703,63.537637942834408,157.395314470933045,5.571364444884239.202177098919492,11.106489321955451.556942073509163,16.559598314141112,1.193040948878661,1.268386664687569.142097033713981,2.529143947094781.317572665132502,3.795623271247678.483511553193239,1.308440990653253.177859801194245,2.628326061714688.327109374187785,3.928183993277344.530241543158809.202178929557704.030517506695105.406265204019292.050544597147564.608444133886223.082015777980814.00000000280852.00858306734608-.001907342681079.017166135321531-.001907339723402.026226039731228,75.145712162970085,11.976215406633855,136.478421627030912,65.801564336260526,159.369485410343259,136.743469455733248,19.931782977486364-20.617964779177782,32.21605052288578-48.674108584745227,32.216040411203721-79.616066350939036l-.000088500595666-270.813894433901623c-.000020682098693-63.287723879811892-51.304845645123351-114.592515310519957-114.592569524935243-114.592494628421264Z"></path></svg>